<svg width="24" height="28" viewBox="0 0 24 28" fill="none" xmlns="http://www.w3.org/2000/svg">
<path d="M4.45437 21.9618L1.80615 22.566V5.41542L4.45437 6.02076V21.9618Z" fill="#5548A5"/>
<path d="M7.75845 22.9741L4.45435 23.9131V4.09189L7.75845 5.02973V22.9741Z" fill="#5548A5"/>
<path d="M11.9969 24.0142L7.75842 25.5653V2.43965L11.9969 3.99005V24.0142Z" fill="#5548A5"/>
<path d="M23.3301 22.0134L11.9969 27.68V0.320007L23.3301 5.98657V22.0134Z" fill="#5548A5"/>
<path d="M9.73792 1.44975L11.997 0.320007V27.68L9.73792 26.5506V1.44975Z" fill="#3F3099"/>
<path d="M6.00964 3.31365L7.7584 2.43927V25.5607L6.00964 24.6864V3.31365Z" fill="#3F3099"/>
<path d="M3.06128 4.78805L4.45436 4.09151V23.9085L3.06128 23.2116V4.78805Z" fill="#3F3099"/>
<path d="M1.80612 5.41542L0.669922 5.98352V22.0169L1.80612 22.5846V5.41542Z" fill="#3F3099"/>
</svg>
