<svg width="20" height="20" viewBox="0 0 20 20" fill="none" xmlns="http://www.w3.org/2000/svg">
<path fill-rule="evenodd" clip-rule="evenodd" d="M9.75052 0C4.36597 0 0 4.47479 0 9.99863C0 14.4168 2.79457 18.1603 6.66866 19.4836C7.15618 19.575 7.33465 19.266 7.33465 19.0004C7.33465 18.761 7.32595 18.1342 7.32159 17.2985C4.60973 17.9035 4.03515 15.9578 4.03515 15.9578C3.59115 14.8042 2.95127 14.4952 2.95127 14.4952C2.06763 13.8727 3.01657 13.8858 3.01657 13.8858C3.99597 13.9554 4.50961 14.9174 4.50961 14.9174C5.3802 16.4453 6.79054 16.0056 7.34771 15.7488C7.43477 15.1046 7.68724 14.6606 7.96582 14.4125C5.80243 14.16 3.52586 13.3025 3.52586 9.47193C3.52586 8.37935 3.90456 7.487 4.52702 6.79054C4.42691 6.53807 4.09173 5.51949 4.62279 4.14397C4.62279 4.14397 5.44114 3.87409 7.30418 5.1669C8.08335 4.9449 8.91476 4.83608 9.74616 4.83173C10.5732 4.83608 11.409 4.9449 12.1881 5.1669C14.0512 3.87409 14.8652 4.14397 14.8652 4.14397C15.3962 5.51949 15.0611 6.53807 14.9609 6.79054C15.5834 7.49136 15.9621 8.3837 15.9621 9.47193C15.9621 13.3112 13.6812 14.1557 11.5091 14.4038C11.8573 14.7128 12.1707 15.3222 12.1707 16.2538C12.1707 17.5901 12.1577 18.6696 12.1577 18.9961C12.1577 19.2616 12.3318 19.575 12.828 19.4749C16.7108 18.156 19.501 14.4125 19.501 9.99863C19.501 4.47479 15.1351 0 9.75052 0Z" fill="#5548A5"/>
</svg>
