<svg width="25" height="11" viewBox="0 0 25 11" fill="none" xmlns="http://www.w3.org/2000/svg">
<path d="M15.6289 3.60938C15.2031 3.71876 14.8516 3.77735 14.4922 3.90626C14.207 3.98047 13.918 4.0586 13.5859 4.14454L13.5625 4.14844C13.3984 4.19532 13.3828 4.19922 13.2305 4.02344C13.0469 3.81641 12.9141 3.6836 12.6602 3.5586C11.8906 3.1836 11.1484 3.29297 10.457 3.74219C9.62891 4.27735 9.20313 5.07032 9.21484 6.05469C9.22656 7.03126 9.89453 7.83204 10.8242 7.96485C11.6836 8.07422 12.3789 7.78516 12.9258 7.16407C13.0078 7.0625 13.082 6.95704 13.1641 6.83985C13.1953 6.80079 13.2227 6.75782 13.2539 6.71094H10.9063C10.6523 6.71094 10.5898 6.55469 10.6758 6.34766C10.832 5.96876 11.125 5.33594 11.2969 5.01954C11.332 4.94922 11.418 4.79297 11.5664 4.79297H15.5156C15.6914 4.26954 15.9766 3.74219 16.3594 3.24219C17.2461 2.07422 18.2852 1.46485 19.7656 1.21094C21.0078 0.992193 22.1758 1.11329 23.2383 1.83204C24.1992 2.48829 24.793 3.37891 24.9531 4.54688C25.1602 6.19141 24.6836 7.52735 23.5195 8.67188C22.75 9.48829 21.7656 10 20.6328 10.2305C20.4141 10.2695 20.1992 10.2891 19.9883 10.3086C19.875 10.3164 19.7656 10.3281 19.6563 10.3398C18.5508 10.3164 17.5391 10 16.6875 9.26954C16.0898 8.75001 15.6758 8.11329 15.4727 7.37501C15.3281 7.66016 15.1602 7.9375 14.9258 8.19922C14.082 9.35547 12.9375 10.0742 11.4922 10.2656C10.2969 10.4258 9.19141 10.1953 8.21484 9.46485C7.31641 8.78126 6.80469 7.88282 6.67188 6.76172C6.51172 5.4336 6.90234 4.20704 7.70313 3.19532C8.57031 2.06251 9.71484 1.34376 11.1133 1.08985C12.2578 0.847663 13.3516 1.01563 14.3398 1.68751C14.9844 2.11329 15.4453 2.69532 15.75 3.40235C15.8242 3.51172 15.7734 3.57422 15.6289 3.60938ZM1.88672 3.82813C1.83789 3.82813 1.82578 3.80469 1.85 3.76563L2.10586 3.43751C2.13008 3.40235 2.19102 3.37891 2.23984 3.37891H6.58594C6.63281 3.37891 6.64453 3.41407 6.62109 3.44922L6.41406 3.76563C6.39063 3.80469 6.32813 3.83985 6.29297 3.83985L1.88672 3.82813ZM0.0486725 4.94922C5.7742e-07 4.94922 -0.0121713 4.92188 0.0121725 4.88672L0.267774 4.5586C0.292149 4.52344 0.353008 4.4961 0.401563 4.4961H5.95313C6 4.4961 6.02344 4.53516 6.01172 4.57032L5.91406 4.86329C5.90234 4.91016 5.85547 4.93751 5.80469 4.93751L0.0486725 4.94922ZM2.95781 5.9961C2.93359 6.03126 2.9457 6.06641 2.99414 6.06641L5.64844 6.07813C5.68359 6.07813 5.73438 6.04297 5.73438 5.9961L5.75781 5.70313C5.75781 5.65235 5.73438 5.61719 5.68359 5.61719H3.25C3.20117 5.61719 3.15274 5.65235 3.12813 5.69141L2.95781 5.9961ZM22.5469 5.29297C22.5391 5.19141 22.5352 5.10547 22.5195 5.01954C22.3008 3.81641 21.1914 3.13282 20.0352 3.40235C18.9023 3.65626 18.1719 4.37501 17.9062 5.51954C17.6875 6.46876 18.1484 7.42969 19.0234 7.82032C19.6953 8.11329 20.3633 8.07813 21.0078 7.7461C21.9687 7.21485 22.4922 6.46876 22.5547 5.42188C22.5508 5.37501 22.5508 5.33204 22.5469 5.29297Z" fill="#5548A5"/>
</svg>
