<svg width="16" height="22" viewBox="0 0 16 22" fill="none" xmlns="http://www.w3.org/2000/svg">
<path d="M2.92401 2.14823H3.78168V3.08761H4.71979V0.282181H3.78168V1.20928H2.92401V0.282181H1.98633V3.08761H2.92401V2.14823Z" fill="#5548A5"/>
<path d="M5.95252 3.08761H6.8902V1.21309H7.71527V0.282181H5.12744V1.21309H5.95252V3.08761Z" fill="#5548A5"/>
<path d="M9.04365 1.69781L9.68965 2.69475H9.70532L10.3501 1.69781V3.08761H11.2843V0.282181H10.3064L9.70532 1.26939L9.10418 0.282181H8.12671V3.08761H9.04365V1.69781Z" fill="#5548A5"/>
<path d="M14.0072 2.16093H12.6885V0.282181H11.7509V3.08761H14.0072V2.16093Z" fill="#5548A5"/>
<path d="M0.63501 4.31866L1.97613 19.3605L7.99634 21.0314L14.0212 19.3614L15.3649 4.31866H0.63501ZM12.4553 9.23779H7.99973H5.39539L5.56387 11.1271H7.99973H12.2877L11.7818 16.7926L7.99973 17.8403L7.99719 17.8412L4.21767 16.7926L3.95394 13.8293H5.80559L5.94275 15.3664L7.99761 15.9218L8.00015 15.9209L10.0571 15.3655L10.2713 12.9729H8.00015H3.87731L3.37905 7.39375H7.99973H12.62L12.4553 9.23779Z" fill="#5548A5"/>
</svg>
