<svg width="28" height="28" viewBox="0 0 28 28" fill="none" xmlns="http://www.w3.org/2000/svg">
<path d="M16.3334 13.125C16.3334 11.9974 17.2475 11.0833 18.375 11.0833H20.125C20.6083 11.0833 21 11.4751 21 11.9583C21 12.4416 20.6083 12.8333 20.125 12.8333H18.375C18.2139 12.8333 18.0834 12.9639 18.0834 13.125V14.875C18.0834 15.0361 18.2139 15.1667 18.375 15.1667H18.9584C20.086 15.1667 21 16.0807 21 17.2083V18.9583C21 20.0859 20.086 21 18.9584 21H17.2084C16.7251 21 16.3334 20.6082 16.3334 20.125C16.3334 19.6418 16.7251 19.25 17.2084 19.25H18.9584C19.1195 19.25 19.25 19.1194 19.25 18.9583V17.2083C19.25 17.0472 19.1195 16.9167 18.9584 16.9167H18.375C17.2475 16.9167 16.3334 16.0026 16.3334 14.875V13.125Z" fill="#5548A5"/>
<path d="M14.875 11.9583C14.875 11.4751 14.4832 11.0833 14 11.0833C13.5168 11.0833 13.125 11.4751 13.125 11.9583V18.9583C13.125 19.1194 12.9944 19.25 12.8333 19.25H11.375C10.8918 19.25 10.5 19.6418 10.5 20.125C10.5 20.6082 10.8918 21 11.375 21H12.8333C13.9609 21 14.875 20.0859 14.875 18.9583V11.9583Z" fill="#5548A5"/>
<path d="M3.5 7.29167V20.7083C3.5 22.8024 5.19758 24.5 7.29167 24.5H20.7083C22.8024 24.5 24.5 22.8024 24.5 20.7083V7.29167C24.5 5.19758 22.8024 3.5 20.7083 3.5H7.29167C5.19758 3.5 3.5 5.19758 3.5 7.29167ZM7.29167 5.25H20.7083C21.8359 5.25 22.75 6.16408 22.75 7.29167V20.7083C22.75 21.8359 21.8359 22.75 20.7083 22.75H7.29167C6.16408 22.75 5.25 21.8359 5.25 20.7083V7.29167C5.25 6.16408 6.16408 5.25 7.29167 5.25Z" fill="#5548A5"/>
</svg>
