<svg width="23" height="30" viewBox="0 0 23 30" fill="none" xmlns="http://www.w3.org/2000/svg">
<path d="M16.6354 18.334C17.2224 17.9414 18.037 17.6016 18.037 17.6016C18.037 17.6016 15.719 18.0117 13.413 18.1992C10.592 18.4277 7.56122 18.4746 6.03987 18.2754C2.44013 17.8066 8.01643 16.5117 8.01643 16.5117C8.01643 16.5117 5.85419 16.3711 3.18883 17.625C0.0442938 19.1133 10.9753 19.793 16.6354 18.334ZM11.5203 16.4531C10.3823 13.9512 6.54299 11.7539 11.5203 7.91016C17.7291 3.11719 14.5451 0 14.5451 0C15.8328 4.95117 10.017 6.45117 7.91461 9.52734C6.4831 11.6309 8.61539 13.8867 11.5203 16.4531ZM18.3844 6.12891C18.3904 6.12891 7.89065 8.69531 12.9039 14.3438C14.3834 16.0078 12.5146 17.5078 12.5146 17.5078C12.5146 17.5078 16.2701 15.6094 14.5451 13.2363C12.9339 11.0215 11.7 9.91992 18.3844 6.12891ZM18.019 21.9785C17.9863 22.0343 17.946 22.0856 17.8992 22.1309C25.5839 20.1563 22.7568 15.1641 19.0852 16.4297C18.8869 16.501 18.7155 16.6298 18.594 16.7988C18.8084 16.7229 19.0288 16.6641 19.2529 16.623C21.1097 16.2422 23.775 19.0547 18.019 21.9785ZM20.8437 25.6289C20.8437 25.6289 21.7122 26.3262 19.8914 26.8711C16.4234 27.8965 5.46846 28.207 2.42575 26.9121C1.32966 26.4492 3.38409 25.7988 4.03096 25.6641C4.70179 25.5234 5.09112 25.5469 5.09112 25.5469C3.87523 24.709 -2.77321 27.1934 1.71299 27.9023C13.9461 29.8477 24.0182 27.0293 20.8437 25.6289ZM7.45341 23.2031C2.73961 24.4922 10.3224 27.1523 16.324 24.6387C15.7387 24.4162 15.1736 24.1457 14.6349 23.8301C11.9576 24.3281 10.7177 24.3633 8.28596 24.0938C6.27945 23.8711 7.45341 23.2031 7.45341 23.2031ZM18.2227 28.8984C13.5089 29.7656 7.69299 29.666 4.24898 29.1094C4.24898 29.1035 4.95575 29.6777 8.58544 29.9062C14.1078 30.252 22.5891 29.7129 22.7867 27.1582C22.7867 27.1582 22.4034 28.125 18.2227 28.8984ZM15.6112 20.6836C12.0654 21.3516 10.011 21.334 7.41747 21.0703C5.41096 20.8652 6.72268 19.916 6.72268 19.916C1.52372 21.6035 9.60966 23.5137 16.875 21.4336C16.4055 21.2714 15.9752 21.0161 15.6112 20.6836Z" fill="#5548A5"/>
</svg>
