<svg width="10" height="22" viewBox="0 0 10 22" fill="none" xmlns="http://www.w3.org/2000/svg">
<path d="M9.74834 8.72483C8.59059 3.62817 5.85984 1.95342 5.5665 1.31267C5.24384 0.86075 4.89459 0 4.89459 0C4.89275 0.0174167 4.89092 0.0284167 4.89 0.0449167V0.0568333H4.88909C4.88725 0.0705833 4.88634 0.07975 4.88542 0.0925833V0.106333H4.88359C4.88359 0.1155 4.88175 0.122833 4.88175 0.130167V0.154H4.879C4.87809 0.161333 4.87809 0.1705 4.87625 0.176917V0.196167H4.87442C4.87442 0.202583 4.87442 0.209917 4.87259 0.215417V0.23375H4.87075C4.87075 0.242917 4.86984 0.253917 4.86892 0.263083V0.264917C4.86617 0.2805 4.86342 0.296083 4.86067 0.31075V0.318083H4.85884C4.85792 0.32175 4.85609 0.325417 4.85609 0.329083V0.344667H4.85334V0.364833H4.84875V0.381333H4.84417V0.400583H4.8405V0.418H4.83684V0.433583H4.83134V0.446417H4.82767V0.462917H4.824V0.47575H4.81942V0.487667H4.81667V0.501417H4.813C4.81209 0.502333 4.81209 0.504167 4.81209 0.505083V0.51425H4.80934C4.80842 0.516083 4.80842 0.517917 4.80842 0.51975V0.52525H4.80659C4.80567 0.528 4.80475 0.532583 4.80475 0.534417C4.802 0.540833 4.79834 0.54725 4.79559 0.553667V0.5555C4.79375 0.557333 4.79192 0.560083 4.791 0.561917V0.56925H4.78734V0.576583H4.78275V0.583917H4.78V0.593083H4.7745V0.605917H4.77084V0.609583H4.76717V0.616917H4.7635V0.627H4.75984V0.634333H4.75434V0.644417H4.75067V0.65175H4.74609V0.659083H4.74334V0.66825H4.73875V0.675583H4.73509V0.681083H4.73142V0.688417H4.72592V0.696667H4.72225V0.702167H4.71767V0.7095H4.714V0.719583H4.70942V0.72325H4.70667V0.730583H4.70117V0.73425H4.6975V0.743417H4.69384V0.747083H4.69017V0.754417H4.68559V0.759917H4.68284L4.681 0.763583V0.76725H4.67917C4.67825 0.769083 4.67734 0.769083 4.67734 0.770917L4.67642 0.771833C4.6755 0.774583 4.67459 0.776417 4.67275 0.77825V0.781C4.66817 0.7865 4.6645 0.792 4.66084 0.7975C4.659 0.799333 4.65442 0.803917 4.65259 0.807583V0.809417H4.65167C4.65075 0.810333 4.64892 0.81125 4.64892 0.812167V0.814917H4.64709L4.64434 0.817667L4.64342 0.818583C4.64342 0.8195 4.64159 0.820417 4.64067 0.82225V0.825917H4.63792L4.63609 0.82775V0.829583H4.63425C4.63425 0.831417 4.63242 0.831417 4.63242 0.832333V0.835083H4.62875C4.62875 0.836 4.62784 0.836917 4.62692 0.837833V0.843333H4.62417V0.847H4.6205V0.8525H4.61684V0.859833H4.61225V0.8525H4.60767V0.856167H4.604V0.861667H4.59942V0.869H4.59484V0.872667H4.59117V0.878167H4.5875V0.881833H4.58384V0.889167H4.57834V0.892833H4.57467V0.898333H4.57009V0.902H4.56642V0.906583H4.56184V0.91575H4.56V0.919417H4.5545V0.924H4.55084V0.925833H4.54717V0.9295H4.54259V0.938667H4.53892V0.942333H4.53434V0.946H4.53067V0.9515H4.52609V0.955167H4.5215V0.958833H4.51784V0.9625H4.51417V0.971667H4.5105V0.97625H4.505V0.979917H4.50134V0.983583H4.49675V0.989083H4.49309V0.99275H4.4885V0.999167H4.48484V1.00283H4.47934V1.00833H4.4775V1.012H4.47384V1.01567H4.46925V1.01933H4.46559V1.02483H4.461V1.0285H4.45825C4.45734 1.02942 4.45734 1.03033 4.45734 1.03033V1.03217H4.4555L4.45184 1.03583C4.45184 1.03583 4.45 1.03767 4.44817 1.03858V1.04408H4.4445V1.04867H4.44084V1.05233H4.43717V1.056H4.43442L4.43167 1.05875V1.0615H4.42984L4.428 1.06333V1.06608H4.42617C4.42159 1.07158 4.41975 1.07525 4.41334 1.08075C4.4115 1.08258 4.406 1.08717 4.40234 1.08992C4.39134 1.09725 4.37759 1.10917 4.36659 1.11925C4.35925 1.12383 4.35192 1.13025 4.34642 1.13483L4.3455 1.13575C4.33084 1.14767 4.31709 1.15867 4.30059 1.1715V1.17242C4.27859 1.19075 4.2575 1.20817 4.23275 1.22925L4.23092 1.22833C4.17867 1.27142 4.12367 1.32 4.06042 1.37408V1.375H4.0595C3.90459 1.51067 3.72034 1.68483 3.51409 1.89567L3.50034 1.90942L3.49667 1.91308C2.25 3.20283 0.285586 5.8905 0.0784193 10.2337C0.0600859 10.593 0.0637526 10.9422 0.0839193 11.2823V11.2906C0.183836 13.002 0.721002 14.4632 1.39292 15.6503C1.66059 16.1233 1.94934 16.5541 2.24175 16.9391C3.25192 18.2728 4.28317 19.0639 4.54625 19.2555C4.9505 20.1933 4.91292 21.8029 4.91292 21.8029L5.50325 22C5.50325 22 5.38317 20.4408 5.55184 19.6882C5.60409 19.4526 5.72784 19.2518 5.87175 19.0813C5.96892 19.0126 6.25675 18.8054 6.60234 18.4901C6.61884 18.4727 6.628 18.4571 6.64267 18.4406C8.03692 17.1408 10.6412 13.9398 9.74834 8.72483Z" fill="#5548A5"/>
</svg>
