<svg width="24" height="23" viewBox="0 0 24 23" fill="none" xmlns="http://www.w3.org/2000/svg">
<path d="M9.629 12.495C9.036 12.495 8.49 12.695 8.049 13.028L5.157 11.052C5.22327 10.8208 5.25725 10.5815 5.258 10.341C5.25694 9.64407 4.97962 8.97599 4.48681 8.48318C3.99401 7.99038 3.32593 7.71306 2.629 7.712C1.93199 7.71279 1.26375 7.99003 0.770893 8.48289C0.278032 8.97575 0.000794013 9.64399 0 10.341C0.000794013 11.038 0.278032 11.7062 0.770893 12.1991C1.26375 12.692 1.93199 12.9692 2.629 12.97C3.222 12.97 3.768 12.77 4.208 12.437L7.1 14.413C7.037 14.639 7 14.878 7 15.124C7 15.371 7.037 15.608 7.1 15.835L4.208 17.811C3.75412 17.4654 3.19946 17.2782 2.629 17.278C1.93199 17.2788 1.26375 17.556 0.770893 18.0489C0.278032 18.5418 0.000794013 19.21 0 19.907C0.000794013 20.604 0.278032 21.2722 0.770893 21.7651C1.26375 22.258 1.93199 22.5352 2.629 22.536C3.32601 22.5352 3.99425 22.258 4.48711 21.7651C4.97997 21.2722 5.25721 20.604 5.258 19.907C5.258 19.66 5.221 19.422 5.157 19.196L8.049 17.22C8.49 17.553 9.036 17.753 9.629 17.753C10.3259 17.7519 10.994 17.4746 11.4868 16.9818C11.9796 16.489 12.2569 15.8209 12.258 15.124C12.258 13.674 11.078 12.495 9.629 12.495ZM16.112 0C11.392 0 8.224 2.748 8.224 8.082V11.884C8.70333 11.6536 9.22858 11.5346 9.76042 11.536C10.2923 11.5374 10.8169 11.6591 11.295 11.892V8.082C11.295 4.623 13.202 2.845 16.112 2.845C19.022 2.845 20.929 4.623 20.929 8.082V16.391H24V8.082C24 2.716 20.832 0 16.112 0Z" fill="#3D3479"/>
</svg>
