<svg width="22" height="24" viewBox="0 0 22 24" fill="none" xmlns="http://www.w3.org/2000/svg">
<path d="M10.64 24C10.319 24 9.999 23.916 9.718 23.753L6.782 22.016C6.344 21.771 6.558 21.684 6.702 21.633C7.287 21.43 7.405 21.383 8.03 21.029C8.095 20.992 8.181 21.006 8.248 21.046L10.504 22.385C10.586 22.43 10.701 22.43 10.776 22.385L19.571 17.309C19.653 17.262 19.705 17.168 19.705 17.071V6.92101C19.705 6.82201 19.652 6.72901 19.568 6.67901L10.777 1.60701C10.696 1.56001 10.588 1.56001 10.506 1.60701L1.717 6.68001C1.632 6.72901 1.578 6.82501 1.578 6.92101V17.071C1.578 17.168 1.632 17.26 1.717 17.306L4.126 18.698C5.433 19.352 6.234 18.582 6.234 17.808V7.78701C6.234 7.64501 6.348 7.53401 6.49 7.53401H7.605C7.744 7.53401 7.86 7.64601 7.86 7.78701V17.808C7.86 19.553 6.91 20.553 5.256 20.553C4.748 20.553 4.347 20.553 3.23 20.002L0.922 18.675C0.352 18.346 0 17.73 0 17.071V6.92101C0 6.26201 0.353 5.64601 0.922 5.31801L9.717 0.236006C10.274 -0.0789941 11.013 -0.0789941 11.565 0.236006L20.359 5.31801C20.929 5.64701 21.283 6.26201 21.283 6.92101V17.071C21.283 17.73 20.929 18.344 20.359 18.675L11.565 23.753C11.285 23.916 10.966 24 10.64 24ZM17.741 13.993C17.741 12.093 16.457 11.587 13.754 11.23C11.023 10.869 10.745 10.682 10.745 10.043C10.745 9.51501 10.98 8.81001 13.003 8.81001C14.81 8.81001 15.476 9.19901 15.75 10.417C15.774 10.532 15.879 10.616 15.997 10.616H17.138C17.209 10.616 17.276 10.585 17.324 10.535C17.372 10.481 17.398 10.412 17.391 10.339C17.214 8.24101 15.82 7.26301 13.003 7.26301C10.495 7.26301 8.999 8.32101 8.999 10.096C8.999 12.021 10.487 12.553 12.894 12.791C15.774 13.073 15.997 13.494 15.997 14.06C15.997 15.043 15.208 15.462 13.355 15.462C11.028 15.462 10.516 14.878 10.344 13.72C10.324 13.596 10.218 13.505 10.091 13.505H8.954C8.813 13.505 8.7 13.617 8.7 13.758C8.7 15.24 9.506 17.006 13.355 17.006C16.143 17.007 17.741 15.91 17.741 13.993Z" fill="#3D3479"/>
</svg>
