<svg width="24" height="13" viewBox="0 0 24 13" fill="none" xmlns="http://www.w3.org/2000/svg">
<path d="M7.01 4.519H6.066L5.551 7.167H6.389C6.945 7.167 7.359 7.062 7.631 6.853C7.903 6.643 8.086 6.294 8.181 5.804C8.273 5.334 8.231 5.002 8.057 4.809C7.882 4.616 7.534 4.519 7.01 4.519ZM12 0C5.373 0 0 2.826 0 6.312C0 9.798 5.373 12.625 12 12.625C18.627 12.625 24 9.798 24 6.312C24 2.826 18.627 0 12 0ZM8.74 7.451C8.479 7.701 8.165 7.889 7.823 8.002C7.487 8.11 7.058 8.166 6.538 8.166H5.357L5.03 9.847H3.652L4.882 3.521H7.532C8.329 3.521 8.91 3.73 9.276 4.149C9.642 4.567 9.752 5.151 9.606 5.901C9.55008 6.19777 9.44711 6.48371 9.301 6.748C9.158 7.003 8.971 7.238 8.74 7.451ZM12.764 8.166L13.307 5.367C13.37 5.049 13.346 4.831 13.239 4.716C13.132 4.6 12.903 4.542 12.552 4.542H11.46L10.756 8.167H9.388L10.618 1.84H11.985L11.658 3.522H12.876C13.643 3.522 14.171 3.656 14.462 3.923C14.753 4.19 14.84 4.623 14.725 5.222L14.153 8.166H12.764ZM20.361 5.901C20.306 6.19802 20.203 6.4841 20.056 6.748C19.913 7.003 19.726 7.238 19.495 7.451C19.2339 7.70024 18.9207 7.88843 18.578 8.002C18.242 8.11 17.813 8.166 17.292 8.166H16.112L15.785 9.848H14.407L15.637 3.522H18.286C19.083 3.522 19.664 3.731 20.03 4.15C20.396 4.567 20.507 5.151 20.361 5.901ZM17.766 4.519H16.823L16.307 7.167H17.145C17.702 7.167 18.116 7.062 18.387 6.853C18.659 6.643 18.842 6.294 18.938 5.804C19.03 5.334 18.987 5.002 18.813 4.809C18.639 4.616 18.289 4.519 17.766 4.519Z" fill="#5548A5"/>
</svg>
