<svg width="24" height="24" viewBox="0 0 24 24" fill="none" xmlns="http://www.w3.org/2000/svg">
<path d="M23.559 14.723C23.545 14.679 23.526 14.64 23.503 14.604C23.364 14.341 23.026 14.262 22.496 14.372C20.843 14.713 20.202 14.503 19.97 14.353C21.312 12.305 22.415 9.831 23.011 7.523C23.282 6.472 23.809 3.999 23.133 2.791C23.088 2.707 23.038 2.628 22.982 2.556C21.693 0.907996 19.801 0.024996 17.51 -4.04785e-06C16.014 -0.015004 14.739 0.345996 14.394 0.478996C14.226 0.447996 14.054 0.419996 13.878 0.396996C13.467 0.321996 13.03 0.276996 12.567 0.268996C11.385 0.249996 10.363 0.532996 9.51697 1.11C8.65897 0.789996 4.72797 -0.534004 2.29497 1.19C0.935972 2.153 0.308972 3.873 0.429972 6.304C0.470972 7.122 0.936972 9.638 1.67197 12.048C2.13197 13.555 2.61097 14.75 3.10497 15.63C3.65797 16.624 4.23097 17.223 4.81897 17.42C5.26597 17.569 5.95197 17.564 6.67697 16.692C7.47797 15.728 8.26697 14.866 8.62197 14.485C9.05697 14.72 9.52797 14.847 10.012 14.862V14.866C9.91397 14.982 9.83297 15.084 9.76497 15.171C9.42597 15.601 9.35597 15.691 8.26497 15.915C7.95497 15.979 7.13097 16.149 7.11897 16.727C7.11597 16.849 7.15197 16.958 7.21097 17.054C7.43797 17.477 8.13197 17.664 8.22597 17.687C9.56097 18.021 10.73 17.779 11.597 17.008C11.58 19.239 11.675 21.425 11.942 22.095C12.165 22.649 12.705 24 14.412 24C14.662 24 14.938 23.971 15.242 23.906C17.024 23.524 17.798 22.736 18.097 21C18.247 20.129 18.499 18.125 18.636 16.899C18.653 16.829 18.672 16.778 18.693 16.763C18.693 16.763 18.763 16.716 19.12 16.794C19.135 16.797 19.149 16.799 19.164 16.801L19.418 16.823C19.423 16.823 19.428 16.824 19.433 16.824C20.28 16.863 21.344 16.681 21.964 16.393C22.608 16.094 23.77 15.36 23.559 14.723ZM2.37097 11.876C1.62697 9.441 1.19297 6.991 1.15897 6.305C1.04997 4.133 1.57597 2.622 2.72097 1.812C4.55797 0.512996 7.56097 1.271 8.82897 1.682C8.82597 1.685 8.82197 1.688 8.81897 1.691C6.79497 3.735 6.84297 7.227 6.84797 7.441C6.84797 7.523 6.85497 7.64 6.86397 7.8C6.89897 8.387 6.96397 9.48 6.79097 10.718C6.62997 11.868 6.98497 12.994 7.76397 13.807C7.84497 13.891 7.92897 13.97 8.01597 14.045C7.66897 14.416 6.91597 15.238 6.11297 16.203C5.54497 16.885 5.15297 16.755 5.02397 16.712C4.63197 16.581 4.21097 16.125 3.78497 15.389C3.30697 14.549 2.82297 13.357 2.37097 11.876ZM8.37797 16.963C8.20697 16.92 8.05097 16.85 7.94597 16.786C8.03497 16.747 8.18297 16.696 8.42897 16.645C9.71197 16.381 9.90997 16.194 10.343 15.645C10.442 15.519 10.555 15.376 10.71 15.202C10.744 15.164 10.769 15.12 10.784 15.072C10.955 14.921 11.056 14.962 11.221 15.03C11.377 15.095 11.529 15.29 11.59 15.505C11.619 15.607 11.652 15.799 11.545 15.949C10.641 17.217 9.32397 17.2 8.37797 16.963ZM10.472 12.976L10.419 13.117C10.286 13.474 10.162 13.805 10.086 14.12C9.41897 14.118 8.76897 13.833 8.27497 13.318C7.64697 12.663 7.36197 11.752 7.49297 10.818C7.67597 9.509 7.60897 8.37 7.57197 7.758C7.56697 7.672 7.56197 7.597 7.55997 7.538C7.85597 7.276 9.22597 6.542 10.203 6.766C10.649 6.868 10.921 7.172 11.034 7.694C11.619 10.398 11.111 11.525 10.704 12.43C10.619 12.617 10.54 12.793 10.472 12.976ZM17.836 17.548C17.819 17.725 17.8 17.924 17.774 18.144L17.628 18.582C17.616 18.617 17.61 18.653 17.61 18.69C17.604 19.165 17.556 19.339 17.495 19.559C17.432 19.788 17.36 20.048 17.316 20.616C17.206 22.03 16.438 22.843 14.899 23.173C13.383 23.498 13.115 22.676 12.878 21.951C12.852 21.871 12.827 21.795 12.801 21.724C12.586 21.138 12.61 20.312 12.644 19.169C12.661 18.608 12.619 17.268 12.314 16.523C12.318 16.23 12.325 15.932 12.333 15.631C12.334 15.592 12.329 15.554 12.318 15.518C12.309 15.449 12.294 15.38 12.274 15.31C12.151 14.882 11.853 14.523 11.494 14.375C11.352 14.316 11.09 14.208 10.776 14.288C10.843 14.012 10.959 13.701 11.085 13.363L11.138 13.221C11.197 13.061 11.272 12.895 11.351 12.72C11.778 11.772 12.362 10.475 11.728 7.543C11.491 6.445 10.697 5.909 9.49497 6.033C8.77297 6.109 8.11397 6.4 7.78497 6.566C7.71497 6.602 7.64997 6.637 7.58897 6.67C7.68097 5.564 8.02797 3.496 9.32497 2.188C9.42197 2.09 9.52297 1.998 9.62797 1.912C9.67997 1.902 9.72997 1.881 9.77297 1.848C10.525 1.277 11.468 0.996996 12.575 1.015C12.984 1.022 13.377 1.049 13.749 1.096C15.688 1.45 16.993 2.543 17.785 3.479C18.599 4.441 19.04 5.411 19.216 5.933C17.893 5.798 16.993 6.06 16.536 6.712C15.543 8.131 17.079 10.885 17.817 12.208C17.952 12.451 18.069 12.66 18.106 12.749C18.346 13.332 18.657 13.72 18.885 14.004C18.955 14.091 19.022 14.175 19.074 14.249C18.673 14.365 17.953 14.632 18.019 15.966C18.007 16.122 17.977 16.413 17.936 16.781C17.889 16.99 17.865 17.242 17.836 17.548ZM18.726 15.927C18.686 15.095 18.995 15.009 19.323 14.917C19.369 14.904 19.414 14.891 19.458 14.876C19.497 14.911 19.541 14.945 19.592 14.979C20.162 15.356 21.174 15.4 22.599 15.113C22.397 15.29 22.08 15.512 21.646 15.714C21.236 15.904 20.55 16.047 19.899 16.078C19.179 16.112 18.813 15.997 18.726 15.927ZM19.296 6.656C19.29 7.007 19.242 7.325 19.191 7.658C19.136 8.016 19.079 8.385 19.065 8.834C19.051 9.271 19.105 9.725 19.158 10.164C19.265 11.051 19.374 11.964 18.951 12.865C18.885 12.748 18.822 12.621 18.763 12.479C18.71 12.351 18.596 12.146 18.438 11.863C17.822 10.759 16.381 8.173 17.119 7.118C17.497 6.576 18.459 6.553 19.296 6.656ZM19.524 13.669C19.496 13.634 19.468 13.598 19.439 13.562C19.427 13.547 19.415 13.532 19.403 13.517C20.129 12.318 19.987 11.131 19.861 10.079C19.809 9.647 19.76 9.239 19.773 8.856C19.786 8.45 19.84 8.102 19.891 7.765C19.955 7.35 20.02 6.921 20.002 6.414C20.015 6.361 20.021 6.298 20.014 6.224C19.968 5.739 19.414 4.286 18.285 2.971C17.677 2.264 16.796 1.474 15.597 0.931996C16.122 0.825996 16.83 0.728996 17.621 0.745996C19.673 0.791996 21.296 1.56 22.445 3.028C22.469 3.058 22.491 3.092 22.512 3.128C23.234 4.485 22.235 9.404 19.524 13.669Z" fill="#5548A5"/>
<path d="M10.0959 7.13499C9.83792 7.09899 9.60492 7.13199 9.48592 7.22199C9.41992 7.27199 9.39992 7.32999 9.39392 7.36999C9.37892 7.47699 9.45392 7.59399 9.49992 7.65499C9.62892 7.82699 9.81892 7.94499 10.0059 7.97099C10.0329 7.97499 10.0599 7.97699 10.0869 7.97699C10.3989 7.97699 10.6829 7.73399 10.7079 7.55399C10.7389 7.32799 10.4129 7.17899 10.0959 7.13499Z" fill="#5548A5"/>
<path d="M18.003 6.957C17.706 6.998 17.418 7.132 17.442 7.309C17.461 7.446 17.709 7.681 18.003 7.681C18.028 7.681 18.053 7.679 18.078 7.676C18.274 7.649 18.418 7.524 18.486 7.453C18.59 7.344 18.65 7.222 18.639 7.143C18.614 6.966 18.3 6.915 18.003 6.957Z" fill="#5548A5"/>
</svg>
