<svg width="23" height="21" viewBox="0 0 23 21" fill="none" xmlns="http://www.w3.org/2000/svg">
<path d="M18.7863 6.96016C18.5438 6.8793 18.3012 6.80293 18.0586 6.73106C18.099 6.56485 18.135 6.39863 18.1709 6.23242C18.7234 3.55508 18.3596 1.40332 17.1332 0.693558C15.9518 0.0152372 14.0246 0.720511 12.075 2.41856C11.8818 2.58477 11.6932 2.75996 11.5135 2.93516C11.3922 2.81836 11.2664 2.70157 11.1406 2.58926C9.09668 0.774417 7.04824 0.0107451 5.82188 0.725003C4.64492 1.40782 4.29453 3.43379 4.78867 5.96739C4.83809 6.21895 4.89199 6.46602 4.95488 6.71758C4.66738 6.79844 4.38437 6.88828 4.11934 6.98262C1.72051 7.81367 0 9.12539 0 10.482C0 11.8836 1.83281 13.2897 4.32598 14.1432C4.52813 14.2105 4.73027 14.2779 4.93691 14.3363C4.86953 14.6059 4.81113 14.8709 4.75723 15.1449C4.28555 17.6381 4.65391 19.6146 5.83086 20.293C7.04375 20.9938 9.0832 20.275 11.0687 18.5365C11.226 18.3973 11.3832 18.2535 11.5404 18.1008C11.7381 18.2939 11.9447 18.4781 12.1514 18.6578C14.074 20.3109 15.9742 20.9803 17.1467 20.302C18.3596 19.6012 18.7549 17.4764 18.2428 14.8889C18.2023 14.6912 18.1574 14.4891 18.108 14.2824C18.2518 14.242 18.391 14.1971 18.5303 14.1521C21.1223 13.2941 23 11.9061 23 10.482C23 9.1209 21.2301 7.8002 18.7863 6.96016ZM12.7084 3.14629C14.3795 1.69082 15.9383 1.12032 16.648 1.5291C17.4072 1.96485 17.6992 3.72578 17.223 6.03926C17.1916 6.19199 17.1602 6.34024 17.1197 6.48848C16.1225 6.26387 15.1117 6.10215 14.0965 6.01231C13.5125 5.17676 12.8746 4.37715 12.1828 3.62696C12.358 3.46074 12.5287 3.30352 12.7084 3.14629ZM7.51094 12.8135C7.74004 13.2043 7.97363 13.5951 8.2207 13.977C7.51992 13.9006 6.82363 13.7883 6.13633 13.64C6.33398 12.9932 6.58105 12.3238 6.86855 11.641C7.0752 12.0363 7.28633 12.4271 7.51094 12.8135ZM6.1498 7.40938C6.79668 7.26563 7.48398 7.14883 8.19824 7.05899C7.96016 7.43184 7.72656 7.81367 7.50645 8.2C7.28633 8.58184 7.0707 8.97266 6.86855 9.36797C6.58555 8.69863 6.34746 8.04278 6.1498 7.40938ZM7.38066 10.5045C7.67715 9.88457 8.00059 9.27813 8.34199 8.68067C8.6834 8.0832 9.05176 7.50371 9.43809 6.93321C10.1119 6.88379 10.7992 6.85684 11.5 6.85684C12.2008 6.85684 12.8926 6.88379 13.5619 6.93321C13.9437 7.49922 14.3076 8.07871 14.6535 8.67168C14.9994 9.26465 15.3229 9.8711 15.6283 10.4865C15.3273 11.1064 15.0039 11.7174 14.658 12.3193C14.3166 12.9168 13.9527 13.4963 13.5709 14.0713C12.9016 14.1207 12.2053 14.1432 11.5 14.1432C10.7947 14.1432 10.1119 14.1207 9.45156 14.0803C9.06074 13.5098 8.69238 12.9258 8.34648 12.3283C8.00059 11.7309 7.68164 11.1244 7.38066 10.5045ZM15.4936 12.8045C15.7227 12.4092 15.9383 12.0094 16.1494 11.6051C16.4369 12.2564 16.6885 12.9168 16.9086 13.5951C16.2123 13.7523 15.507 13.8736 14.7973 13.9545C15.0398 13.5771 15.2689 13.1908 15.4936 12.8045ZM16.1404 9.36797C15.9293 8.97266 15.7137 8.57735 15.4891 8.19102C15.2689 7.80918 15.0398 7.43184 14.8018 7.05899C15.525 7.14883 16.2168 7.27012 16.8637 7.41836C16.657 8.0832 16.4145 8.73008 16.1404 9.36797ZM11.509 4.31426C11.9807 4.82637 12.4254 5.36543 12.8387 5.92246C11.9492 5.88203 11.0553 5.88203 10.1658 5.92246C10.6061 5.34297 11.0598 4.80391 11.509 4.31426ZM6.29805 1.56055C7.05273 1.12032 8.72832 1.74922 10.4938 3.3125C10.6061 3.41133 10.7184 3.51914 10.8352 3.62696C10.1389 4.37715 9.49648 5.17676 8.90801 6.01231C7.89277 6.10215 6.88652 6.25938 5.88926 6.47949C5.83086 6.25039 5.78145 6.0168 5.73203 5.78321C5.30977 3.60899 5.58828 1.96934 6.29805 1.56055ZM5.19746 13.402C5.00879 13.348 4.82461 13.2897 4.64043 13.2268C3.68359 12.9258 2.59648 12.4496 1.81035 11.8252C1.35664 11.5107 1.05117 11.0256 0.96582 10.482C0.96582 9.65996 2.38535 8.60879 4.43379 7.89453C4.68984 7.80469 4.95039 7.72383 5.21094 7.64746C5.51641 8.62227 5.88477 9.5791 6.31152 10.5045C5.88027 11.4434 5.50742 12.4137 5.19746 13.402ZM10.4354 17.8043C9.69414 18.4826 8.83613 19.0217 7.90176 19.39C7.40312 19.6281 6.82813 19.6506 6.31602 19.4484C5.60176 19.0352 5.30527 17.4494 5.70957 15.3156C5.75898 15.0641 5.81289 14.8125 5.87578 14.5654C6.88203 14.7811 7.89727 14.9293 8.92598 15.0057C9.51895 15.8457 10.1703 16.6498 10.8666 17.4045C10.7229 17.5438 10.5791 17.6785 10.4354 17.8043ZM11.5359 16.7127C11.0777 16.2186 10.6195 15.6705 10.1748 15.082C10.6061 15.1 11.0508 15.109 11.5 15.109C11.9627 15.109 12.4164 15.1 12.8656 15.0775C12.4523 15.648 12.0076 16.1916 11.5359 16.7127ZM17.4072 18.0604C17.3668 18.6084 17.0973 19.1205 16.666 19.4664C15.9518 19.8797 14.4289 19.3406 12.7848 17.9301C12.5961 17.7684 12.4074 17.5932 12.2143 17.4135C12.9016 16.6543 13.535 15.8502 14.11 15.0057C15.1387 14.9203 16.1629 14.7631 17.1736 14.534C17.2186 14.7182 17.259 14.9023 17.2949 15.082C17.515 16.0523 17.551 17.0631 17.4072 18.0604ZM18.2248 13.2313C18.099 13.2717 17.9732 13.3121 17.843 13.348C17.5285 12.3688 17.1422 11.4119 16.6975 10.482C17.1287 9.56563 17.4926 8.62227 17.798 7.65645C18.0316 7.72383 18.2563 7.7957 18.4719 7.86758C20.5652 8.58633 22.0342 9.65547 22.0342 10.473C22.0342 11.3535 20.4664 12.49 18.2248 13.2313ZM11.5 12.5574C12.6365 12.5574 13.5574 11.6365 13.5574 10.5C13.5574 9.36348 12.6365 8.44258 11.5 8.44258C10.3635 8.44258 9.44258 9.36348 9.44258 10.5C9.44258 11.6365 10.3635 12.5574 11.5 12.5574Z" fill="#5548A5"/>
</svg>
