<svg width="24" height="23" viewBox="0 0 24 23" fill="none" xmlns="http://www.w3.org/2000/svg">
<path d="M22.71 12.218C21.05 14.31 19.258 16.701 15.672 16.701C12.469 16.701 11.275 13.876 11.192 11.581C11.893 13.065 13.265 14.266 15.406 14.211C19.523 14.078 22.346 10.359 22.346 6.972C22.346 2.922 19.324 0 14.078 0C10.326 0 5.678 1.428 2.623 3.685C2.59 6.01 3.885 9.031 4.35 8.699C6.998 6.795 9.098 5.569 11.134 4.955C8.12 8.317 0.886 16.123 0 17.498C0.1 18.759 1.66 22.146 2.424 22.146C2.656 22.146 2.855 22.013 3.088 21.781C5.03195 19.6074 6.88036 17.3503 8.628 15.016C8.85 18.12 10.376 21.914 14.642 21.914C18.461 21.914 22.246 19.158 23.972 12.949C24.172 12.185 23.242 11.588 22.711 12.219L22.71 12.218ZM18.361 7.205C18.361 9.164 16.435 10.127 14.676 10.127C13.735 10.127 13.012 9.88 12.441 9.559C13.492 7.967 14.533 6.334 15.651 4.586C17.623 4.92 18.361 6.016 18.361 7.205Z" fill="#3D3479"/>
</svg>
